<?xml version="1.0" encoding="iso-8859-1"?>
<!-- Generator: Adobe Illustrator 19.0.0, SVG Export Plug-In . SVG Version: 6.00 Build 0)  -->
<svg version="1.1" id="Capa_1" xmlns="http://www.w3.org/2000/svg" xmlns:xlink="http://www.w3.org/1999/xlink" x="0px" y="0px"
	 viewBox="0 0 450.56 450.56" style="enable-background:new 0 0 450.56 450.56;" xml:space="preserve">
<g>
	<g>
		<path d="M381.44,119.808h-60.416V96.256C321.536,43.008,278.016,0,225.28,0c-52.736,0-96.256,43.008-96.256,96.256v23.552H69.12
			c-9.216,0-16.384,7.168-16.384,16.384V325.12c0,69.12,56.32,125.44,125.44,125.44h94.208c69.12,0,125.44-56.32,125.44-125.44
			V136.192C397.824,126.976,390.656,119.808,381.44,119.808z M288.768,119.808H161.792V96.256c0-34.816,28.16-63.488,63.488-63.488
			s63.488,28.16,63.488,63.488V119.808z"/>
	</g>
</g>
<g>
</g>
<g>
</g>
<g>
</g>
<g>
</g>
<g>
</g>
<g>
</g>
<g>
</g>
<g>
</g>
<g>
</g>
<g>
</g>
<g>
</g>
<g>
</g>
<g>
</g>
<g>
</g>
<g>
</g>
</svg>
